<?xml version="1.0" standalone="no"?><svg xmlns="http://www.w3.org/2000/svg" viewBox="0 0 1440 320"><path fill="#cfcfcf" fill-opacity="1" d="M0,0L21.8,48C43.6,96,87,192,131,224C174.5,256,218,224,262,213.3C305.5,203,349,213,393,213.3C436.4,213,480,203,524,192C567.3,181,611,171,655,192C698.2,213,742,267,785,282.7C829.1,299,873,277,916,250.7C960,224,1004,192,1047,160C1090.9,128,1135,96,1178,112C1221.8,128,1265,192,1309,208C1352.7,224,1396,192,1418,176L1440,160L1440,320L1418.2,320C1396.4,320,1353,320,1309,320C1265.5,320,1222,320,1178,320C1134.5,320,1091,320,1047,320C1003.6,320,960,320,916,320C872.7,320,829,320,785,320C741.8,320,698,320,655,320C610.9,320,567,320,524,320C480,320,436,320,393,320C349.1,320,305,320,262,320C218.2,320,175,320,131,320C87.3,320,44,320,22,320L0,320Z"></path></svg>